<svg width="1285" height="320" viewBox="0 0 1285 320" fill="none" xmlns="http://www.w3.org/2000/svg">
<path d="M0 74.3431L72.8025 116.363V187.473L0 145.454V74.3431Z" fill="#EAEAEA"/>
<path d="M127.811 0L198.996 40.4037L72.8049 116.363L0.00244141 74.3428L127.811 0Z" fill="white"/>
<path d="M199 245.657L126.198 203.637L126.198 132.526L199 174.546L199 245.657Z" fill="#EAEAEA"/>
<path d="M71.1912 320L0.00656454 279.596L126.198 203.637L199 245.657L71.1912 320Z" fill="white"/>
<path d="M328.133 139.266C351.019 139.266 376.193 125.721 376.193 97.486C376.193 78.7901 365.323 67.7251 340.911 57.9956L331.756 54.3709C317.643 48.6476 314.21 44.069 314.21 38.155C314.21 30.524 320.504 26.7085 328.705 26.7085C337.096 26.7085 343.962 31.0963 349.875 41.3982L372.188 28.807C365.704 14.4989 351.4 0 327.561 0C304.102 0 284.459 14.3081 284.459 37.7735C284.459 59.7126 301.051 69.6329 319.169 76.8823L327.561 80.1255C340.529 85.2764 344.916 89.0919 344.916 97.1045C344.916 107.597 336.715 111.985 327.751 111.985C314.973 111.985 307.726 103.209 303.912 94.0521L279.5 105.308C284.649 125.148 304.293 139.266 328.133 139.266Z" fill="white"/>
<path d="M389.311 27.6624H418.872V1.90775L389.311 1.90775V27.6624ZM389.311 137.358H418.872V38.155H389.311V137.358Z" fill="white"/>
<path d="M482.576 36.2472C457.02 36.2472 432.036 54.3709 432.036 87.9473C432.036 120.57 456.829 139.266 484.293 139.266C502.411 139.266 516.524 131.826 524.725 121.524L511.374 107.597C504.127 113.13 496.308 115.228 487.535 115.228C474.375 115.228 464.458 109.886 460.453 99.203H531.018C537.312 53.7985 507.751 36.2472 482.576 36.2472ZM482.958 61.048C492.875 61.048 502.983 66.5805 505.081 78.027H459.881C463.123 66.1989 473.04 61.048 482.958 61.048Z" fill="white"/>
<path d="M604.131 36.2472C590.018 36.2472 580.292 42.3521 574.761 50.7462V38.155L545.2 38.155V137.358H574.761V84.1318C574.761 71.7314 581.055 62.5742 593.07 62.5742C605.276 62.5742 611.569 71.7314 611.569 84.1318V137.358H641.131V78.9809C641.131 48.6476 624.157 36.2472 604.131 36.2472Z" fill="white"/>
<path d="M714.917 36.2472C700.804 36.2472 691.077 42.3521 685.547 50.7462V38.155H655.985V137.358H685.547V84.1318C685.547 71.7314 691.84 62.5742 703.855 62.5742C716.061 62.5742 722.355 71.7314 722.355 84.1318V137.358H751.916V78.9809C751.916 48.6476 734.942 36.2472 714.917 36.2472Z" fill="white"/>
<path d="M812.312 139.266C829.858 139.266 840.157 129.727 841.683 126.102H842.255V137.358H871.816V38.155H842.255V49.4107H841.683C840.157 45.786 829.858 36.2472 812.312 36.2472C789.808 36.2472 765.014 53.2262 765.014 87.7565C765.014 122.287 789.808 139.266 812.312 139.266ZM818.415 112.939C805.828 112.939 794.194 103.782 794.194 87.7565C794.194 71.7314 805.828 62.5742 818.415 62.5742C831.384 62.5742 843.018 71.5406 843.018 87.7565C843.018 103.972 831.384 112.939 818.415 112.939Z" fill="white"/>
<path d="M361.699 210.114V182.642H284.268V318.092H314.401V262.958H359.22V237.204H314.401V210.114H361.699Z" fill="white"/>
<path d="M422.944 320C448.882 320 475.582 302.258 475.582 268.491C475.582 234.724 448.882 216.981 422.944 216.981C397.007 216.981 370.306 234.724 370.306 268.491C370.306 302.258 397.007 320 422.944 320ZM422.944 293.291C410.166 293.291 399.486 283.753 399.486 268.491C399.486 253.229 410.166 243.69 422.944 243.69C435.722 243.69 446.402 253.229 446.402 268.491C446.402 283.753 435.722 293.291 422.944 293.291Z" fill="white"/>
<path d="M555.054 218.889V272.115C555.054 284.516 548.761 293.673 536.745 293.673C524.54 293.673 518.246 284.516 518.246 272.115V218.889L488.685 218.889V277.266C488.685 307.6 505.659 320 525.684 320C539.797 320 549.523 313.895 555.054 305.501V318.092H584.615V218.889H555.054Z" fill="white"/>
<path d="M658.402 216.981C644.289 216.981 634.562 223.086 629.031 231.48V218.889H599.47V318.092H629.031V264.866C629.031 252.466 635.325 243.308 647.34 243.308C659.546 243.308 665.84 252.466 665.84 264.866V318.092H695.401V259.715C695.401 229.382 678.427 216.981 658.402 216.981Z" fill="white"/>
<path d="M785.74 182.642V230.145H785.167C783.642 226.52 773.343 216.981 755.797 216.981C733.292 216.981 708.499 233.96 708.499 268.491C708.499 303.021 733.292 320 755.797 320C773.343 320 783.642 310.461 785.167 306.837H785.74V318.092H815.301V182.642H785.74ZM761.9 293.673C749.313 293.673 737.679 284.516 737.679 268.491C737.679 252.466 749.313 243.308 761.9 243.308C774.869 243.308 786.503 252.275 786.503 268.491C786.503 284.707 774.869 293.673 761.9 293.673Z" fill="white"/>
<path d="M875.74 320C893.286 320 903.585 310.461 905.111 306.837H905.683V318.092H935.244V218.889H905.683V230.145H905.111C903.585 226.52 893.286 216.981 875.74 216.981C853.236 216.981 828.442 233.96 828.442 268.491C828.442 303.021 853.236 320 875.74 320ZM881.843 293.673C869.256 293.673 857.622 284.516 857.622 268.491C857.622 252.466 869.256 243.308 881.843 243.308C894.812 243.308 906.446 252.275 906.446 268.491C906.446 284.707 894.812 293.673 881.843 293.673Z" fill="white"/>
<path d="M1004.46 293.101C995.492 293.101 992.632 287.759 992.632 282.799V242.355H1013.42V218.889H992.632V193.516L963.071 193.516V218.889H948.385V242.355H963.071V287.568C963.071 310.27 976.421 319.237 994.73 319.237C1001.6 319.237 1009.99 317.901 1013.8 314.086V291.575C1010.18 292.719 1006.74 293.101 1004.46 293.101Z" fill="white"/>
<path d="M1027.47 208.397H1057.03V182.642H1027.47V208.397ZM1027.47 318.092H1057.03V218.889H1027.47V318.092Z" fill="white"/>
<path d="M1122.83 320C1148.77 320 1175.47 302.258 1175.47 268.491C1175.47 234.724 1148.77 216.981 1122.83 216.981C1096.89 216.981 1070.19 234.724 1070.19 268.491C1070.19 302.258 1096.89 320 1122.83 320ZM1122.83 293.291C1110.05 293.291 1099.37 283.753 1099.37 268.491C1099.37 253.229 1110.05 243.69 1122.83 243.69C1135.61 243.69 1146.29 253.229 1146.29 268.491C1146.29 283.753 1135.61 293.291 1122.83 293.291Z" fill="white"/>
<path d="M1247.5 216.981C1233.39 216.981 1223.66 223.086 1218.13 231.48V218.889H1188.57V318.092H1218.13V264.866C1218.13 252.466 1224.42 243.308 1236.44 243.308C1248.65 243.308 1254.94 252.466 1254.94 264.866V318.092H1284.5V259.715C1284.5 229.382 1267.53 216.981 1247.5 216.981Z" fill="white"/>
<circle cx="895" cy="126" r="12" fill="white"/>
</svg>
